<svg xmlns="http://www.w3.org/2000/svg" xmlns:xlink="http://www.w3.org/1999/xlink" width="490.281" height="490.289" viewBox="0 0 490.281 490.289">
  <defs>
    <linearGradient id="linear-gradient" x1="0.5" x2="0.5" y2="1" gradientUnits="objectBoundingBox">
      <stop offset="0" stop-color="#fff"/>
      <stop offset="1" stop-color="#e6e6e6"/>
    </linearGradient>
    <filter id="Path_4" x="0" y="0" width="490.281" height="490.289" filterUnits="userSpaceOnUse">
      <feOffset dx="10" dy="10" input="SourceAlpha"/>
      <feGaussianBlur stdDeviation="10" result="blur"/>
      <feFlood flood-color="#979ba7" flood-opacity="0.502"/>
      <feComposite operator="in" in2="blur"/>
      <feComposite in="SourceGraphic"/>
    </filter>
    <filter id="Path_17" x="9.282" y="120.198" width="441.455" height="289.553" filterUnits="userSpaceOnUse">
      <feOffset dy="5" input="SourceAlpha"/>
      <feGaussianBlur stdDeviation="3" result="blur-2"/>
      <feFlood flood-opacity="0.161"/>
      <feComposite operator="in" in2="blur-2"/>
      <feComposite in="SourceGraphic"/>
    </filter>
    <filter id="Path_18" x="72.272" y="208.578" width="135.213" height="135.245" filterUnits="userSpaceOnUse">
      <feOffset dy="5" input="SourceAlpha"/>
      <feGaussianBlur stdDeviation="3" result="blur-3"/>
      <feFlood flood-color="#2d2d3b" flood-opacity="0.2"/>
      <feComposite operator="in" in2="blur-3"/>
      <feComposite in="SourceGraphic"/>
    </filter>
    <filter id="Path_19" x="287.26" y="117.435" width="163.479" height="58.559" filterUnits="userSpaceOnUse">
      <feOffset dy="3" input="SourceAlpha"/>
      <feGaussianBlur stdDeviation="3" result="blur-4"/>
      <feFlood flood-opacity="0.161"/>
      <feComposite operator="in" in2="blur-4"/>
      <feComposite in="SourceGraphic"/>
    </filter>
  </defs>
  <g id="logo_circle" data-name="logo_circle" transform="translate(-1065.105 -462.499)">
    <g transform="matrix(1, 0, 0, 1, 1065.11, 462.5)" filter="url(#Path_4)">
      <path id="Path_4-2" data-name="Path 4" d="M854.794,597.878c0,118.835-96.349,215.156-215.165,215.156-118.8,0-215.117-96.321-215.117-215.156,0-118.808,96.317-215.133,215.117-215.133C758.445,382.745,854.794,479.07,854.794,597.878Z" transform="translate(-404.51 -362.74)" fill="url(#linear-gradient)"/>
    </g>
    <path id="Path_5" data-name="Path 5" d="M484.126,428.226" transform="translate(852.622 206.567)" fill="#fff"/>
    <g transform="matrix(1, 0, 0, 1, 1065.11, 462.5)" filter="url(#Path_17)">
      <path id="Path_17-2" data-name="Path 17" d="M824.531,496.138,804.322,600.983l-.551,3.366c-.175,1.122-.363,2.354-.544,3.638-.22,1.33-.4,2.348-.59,3.087a43.412,43.412,0,0,0-.551-4.475c-.363-2.412-.732-4.494-1.135-6.148L775.715,496.138H738.436L713.525,600.146a32.265,32.265,0,0,0-.869,5.616,45.9,45.9,0,0,1-.545,4.754,44.327,44.327,0,0,1-.6-4.488,29.663,29.663,0,0,0-.817-5.312L690.256,496.138,674.833,420.81H445.06v39.8H638.145l8.081,35.533,42.065,196.224H728.63L755,583.063c.363-.778.914-4.332,1.686-10.662.733,5.577,1.284,9.248,1.686,10.928l27.472,109.034h40.333l42.337-196.224Z" transform="translate(-426.78 -296.61)" fill="#2d2d3b"/>
    </g>
    <g transform="matrix(1, 0, 0, 1, 1065.11, 462.5)" filter="url(#Path_18)">
      <path id="Path_18-2" data-name="Path 18" d="M571.986,471.678H534.758V434.437H492v37.241H454.772v42.7H492v37.3h42.758v-37.3h37.228Z" transform="translate(-373.5 -221.86)" fill="#e71b19"/>
    </g>
    <g transform="matrix(1, 0, 0, 1, 1065.11, 462.5)" filter="url(#Path_19)">
      <path id="Path_19-2" data-name="Path 19" d="M487.922,420.692l8.3,40.559H633.4V420.692Z" transform="translate(-191.66 -297.26)" fill="#2d2d3b"/>
    </g>
  </g>
</svg>
